<svg xmlns="http://www.w3.org/2000/svg" width="64" height="64"><path fill="#9aa4a6" d="M30.94 28.27h2.11v22.49h-2.11z"/><path fill="#e07a5f" d="M31.8.4c-.5 0-.9.47-.9 1.06v5.53H33V1.46C32.9.86 32.5.4 32 .4"/><path fill="#f2cc8f" d="M32 6.17v24.4c1.8-2.3 4.5-3.8 7.7-3.8 3.1 0 5.9 1.5 7.7 3.8-1.5-13.8-7.7-24.4-15.4-24.4"/><path fill="#81b29a" d="M32 6.17v24.4c-1.8-2.3-4.5-3.8-7.7-3.8s-5.9 1.5-7.7 3.8c1.5-13.8 7.7-24.4 15.4-24.4"/><path fill="#3d405b" d="M32 6.17c7.7 0 13.9 10.6 15.4 24.4 1.8-2.3 4.5-3.8 7.7-3.8 2.7 0 5.2 1.1 7 2.9C59 16.27 46.7 6.17 32 6.17"/><path fill="#a8dadc" d="M32 6.17c-7.7 0-13.9 10.6-15.4 24.4a9.7 9.7 0 0 0-7.7-3.8 10 10 0 0 0-7 2.9C5 16.27 17.3 6.17 32 6.17"/><path fill="#e76f51" d="M30.18 50.28v5.6a3.8 3.8 0 1 1-7.6 0c0-1-.8-1.9-1.9-1.9s-1.9.8-1.9 1.9c0 4.1 3.4 7.5 7.5 7.5s7.5-3.4 7.5-7.5v-5.6z"/></svg>